{
 "accessors": [
  {
   "componentType": 5126,
   "type": "VEC3",
   "count": 99,
   "max": [
    2.4045801162719727,
    10.249300003051758,
    6.37283992767334
   ],
   "min": [
    -2.4045801162719727,
    5.746339797973633,
    2.4951400756835938
   ],
   "bufferView": 2
  },
  {
   "componentType": 5126,
   "type": "VEC3",
   "count": 99,
   "bufferView": 3
  },
  {
   "componentType": 5126,
   "type": "VEC2",
   "count": 99,
   "bufferView": 4
  },
  {
   "componentType": 5121,
   "type": "SCALAR",
   "count": 570,
   "bufferView": 5
  },
  {
   "componentType": 5126,
   "type": "VEC3",
   "count": 1496,
   "max": [
    19.441200256347656,
    20.885400772094727,
    8.023530006408691
   ],
   "min": [
    -19.441200256347656,
    -24.34830093383789,
    -27.51460075378418
   ],
   "bufferView": 6
  },
  {
   "componentType": 5126,
   "type": "VEC3",
   "count": 1496,
   "bufferView": 7
  },
  {
   "componentType": 5126,
   "type": "VEC2",
   "count": 1496,
   "bufferView": 8
  },
  {
   "componentType": 5123,
   "type": "SCALAR",
   "count": 7380,
   "bufferView": 9
  },
  {
   "componentType": 5126,
   "type": "VEC3",
   "count": 30,
   "max": [
    1.385010004043579,
    6.880680084228516,
    6.236249923706055
   ],
   "min": [
    -1.385010004043579,
    5.5306501388549805,
    5.062139987945557
   ],
   "bufferView": 10
  },
  {
   "componentType": 5126,
   "type": "VEC3",
   "count": 30,
   "bufferView": 11
  },
  {
   "componentType": 5126,
   "type": "VEC2",
   "count": 30,
   "bufferView": 12
  },
  {
   "componentType": 5121,
   "type": "SCALAR",
   "count": 102,
   "bufferView": 13
  }
 ],
 "asset": {
  "version": "2.0",
  "generator": "clara.io"
 },
 "bufferViews": [
  {
   "buffer": 0,
   "byteOffset": 0,
   "byteLength": 15541
  },
  {
   "buffer": 0,
   "byteOffset": 15544,
   "byteLength": 8210
  },
  {
   "buffer": 0,
   "byteOffset": 23756,
   "byteLength": 1188,
   "target": 34962,
   "byteStride": 12
  },
  {
   "buffer": 0,
   "byteOffset": 24944,
   "byteLength": 1188,
   "target": 34962,
   "byteStride": 12
  },
  {
   "buffer": 0,
   "byteOffset": 26132,
   "byteLength": 792,
   "target": 34962,
   "byteStride": 8
  },
  {
   "buffer": 0,
   "byteOffset": 26924,
   "byteLength": 570,
   "target": 34963
  },
  {
   "buffer": 0,
   "byteOffset": 27496,
   "byteLength": 17952,
   "target": 34962,
   "byteStride": 12
  },
  {
   "buffer": 0,
   "byteOffset": 45448,
   "byteLength": 17952,
   "target": 34962,
   "byteStride": 12
  },
  {
   "buffer": 0,
   "byteOffset": 63400,
   "byteLength": 11968,
   "target": 34962,
   "byteStride": 8
  },
  {
   "buffer": 0,
   "byteOffset": 75368,
   "byteLength": 14760,
   "target": 34963
  },
  {
   "buffer": 0,
   "byteOffset": 90128,
   "byteLength": 360,
   "target": 34962,
   "byteStride": 12
  },
  {
   "buffer": 0,
   "byteOffset": 90488,
   "byteLength": 360,
   "target": 34962,
   "byteStride": 12
  },
  {
   "buffer": 0,
   "byteOffset": 90848,
   "byteLength": 240,
   "target": 34962,
   "byteStride": 8
  },
  {
   "buffer": 0,
   "byteOffset": 91088,
   "byteLength": 102,
   "target": 34963
  }
 ],
 "buffers": [
  {
   "byteLength": 91192,
   "uri": "data:application/octet-stream;base64,"
  }
 ],
 "images": [
  {
   "name": "freezer_0_2.tga",
   "bufferView": 0,
   "mimeType": "image/png"
  },
  {
   "name": "freezer_0_0.tga",
   "bufferView": 1,
   "mimeType": "image/png"
  }
 ],
 "materials": [
  {
   "name": "mat_0",
   "pbrMetallicRoughness": {
    "baseColorTexture": {
     "index": 1,
     "texCoord": 0
    },
    "roughnessFactor": 0.7071,
    "metallicFactor": 0
   },
   "doubleSided": true
  },
  {
   "name": "mat_1",
   "pbrMetallicRoughness": {
    "baseColorFactor": [
     0.8,
     0.8,
     0.8,
     1
    ],
    "baseColorTexture": {
     "index": 1,
     "texCoord": 0
    },
    "roughnessFactor": 0.7071,
    "metallicFactor": 0
   },
   "doubleSided": true
  },
  {
   "name": "mat_2",
   "pbrMetallicRoughness": {
    "baseColorFactor": [
     0.8,
     0.8,
     0.8,
     1
    ],
    "baseColorTexture": {
     "index": 0,
     "texCoord": 0
    },
    "roughnessFactor": 0.7071,
    "metallicFactor": 0
   },
   "doubleSided": true
  }
 ],
 "meshes": [
  {
   "primitives": [
    {
     "indices": 3,
     "material": 1,
     "mode": 4,
     "attributes": {
      "POSITION": 0,
      "NORMAL": 1,
      "TEXCOORD_0": 2
     }
    }
   ]
  },
  {
   "primitives": [
    {
     "indices": 7,
     "material": 0,
     "mode": 4,
     "attributes": {
      "POSITION": 4,
      "NORMAL": 5,
      "TEXCOORD_0": 6
     }
    }
   ]
  },
  {
   "primitives": [
    {
     "indices": 11,
     "material": 2,
     "mode": 4,
     "attributes": {
      "POSITION": 8,
      "NORMAL": 9,
      "TEXCOORD_0": 10
     }
    }
   ]
  }
 ],
 "nodes": [
  {
   "name": "BR_Articuno",
   "translation": [
    0,
    6.680200099945068,
    0
   ],
   "children": [
    1,
    2,
    3
   ]
  },
  {
   "name": "freezer_mat_1_freezer_mat_1",
   "mesh": 0
  },
  {
   "name": "freezer_mat_0_freezer_mat_0",
   "mesh": 1
  },
  {
   "name": "freezer_mat_2_freezer_mat_2",
   "mesh": 2
  }
 ],
 "samplers": [
  {
   "magFilter": 9729,
   "minFilter": 9987,
   "wrapS": 10497,
   "wrapT": 10497
  }
 ],
 "scene": 0,
 "scenes": [
  {
   "nodes": [
    0
   ]
  }
 ],
 "textures": [
  {
   "sampler": 0,
   "source": 0
  },
  {
   "sampler": 0,
   "source": 1
  }
 ]
}